<?xml version="1.0" encoding="UTF-8" standalone="no"?>
<!-- Created with Inkscape (http://www.inkscape.org/) -->
<svg xmlns:dc="http://purl.org/dc/elements/1.1/" xmlns:cc="http://creativecommons.org/ns#" xmlns:rdf="http://www.w3.org/1999/02/22-rdf-syntax-ns#" xmlns:svg="http://www.w3.org/2000/svg" xmlns="http://www.w3.org/2000/svg" xmlns:sodipodi="http://sodipodi.sourceforge.net/DTD/sodipodi-0.dtd" xmlns:inkscape="http://www.inkscape.org/namespaces/inkscape" width="590.83002" height="600" id="svg3004" version="1.1" inkscape:version="0.48.1 " sodipodi:docname="IUST logo solid black.svg" inkscape:export-filename="C:\Users\Sony\Desktop\SVG homeworks\IUST logo solid black.png" inkscape:export-xdpi="90" inkscape:export-ydpi="90">
  <defs id="defs3006"/>
  <sodipodi:namedview id="base" pagecolor="#ffffff" bordercolor="#666666" borderopacity="1.0" inkscape:pageopacity="0.0" inkscape:pageshadow="2" inkscape:zoom="0.74481914" inkscape:cx="808.40352" inkscape:cy="402.6778" inkscape:document-units="px" inkscape:current-layer="layer1" showgrid="false" showguides="true" inkscape:guide-bbox="true" inkscape:snap-bbox="false" inkscape:snap-to-guides="true" inkscape:window-width="1600" inkscape:window-height="823" inkscape:window-x="-9" inkscape:window-y="-9" inkscape:window-maximized="1"/>
  <metadata id="metadata3009">
    <rdf:RDF>
      <cc:Work rdf:about="">
        <dc:format>image/svg+xml</dc:format>
        <dc:type rdf:resource="http://purl.org/dc/dcmitype/StillImage"/>
        <dc:title/>
      </cc:Work>
    </rdf:RDF>
  </metadata>
  <g inkscape:groupmode="layer" id="layer3" inkscape:label="Base" style="display:inline"/>
  <g inkscape:label="Layer 1" inkscape:groupmode="layer" id="layer1" transform="translate(0,-452.36218)" style="display:inline">
    <g id="g4035">
      <path d="m 259.43799,141.20573 75.01821,0 c 2.94035,0 5.30749,2.36715 5.30749,5.3075 0,2.94035 -2.36714,5.3075 -5.30749,5.3075 l -75.01821,0 c -2.94035,0 -5.3075,-2.36715 -5.3075,-5.3075 0,-2.94035 2.36715,-5.3075 5.3075,-5.3075 z m -8.98309,-15.7706 93.57199,0 c 2.92559,0 5.28085,2.35526 5.28085,5.28085 0,2.92559 -2.35526,5.28086 -5.28085,5.28086 l -93.57199,0 c -2.9256,0 -5.28086,-2.35527 -5.28086,-5.28086 0,-2.92559 2.35526,-5.28085 5.28086,-5.28085 z m -8.49182,-15.78067 109.42255,0 c 2.90548,0 5.24456,2.33907 5.24456,5.24456 0,2.90549 -2.33908,5.24456 -5.24456,5.24456 l -109.42255,0 c -2.90548,0 -5.24456,-2.33907 -5.24456,-5.24456 0,-2.90549 2.33908,-5.24456 5.24456,-5.24456 z m 145.59942,-1.49821 c -11.42256,0.37902 -28.44699,12.74302 -37.3831,32.68288 l -6.27777,14.0081 -11.61576,32.27429 c 4.29337,1.6179 9.29943,4.00315 13.27663,6.19098 0.17606,0.11463 0.34841,0.23819 0.53125,0.34375 0.301,0.17378 0.62452,0.3231 0.9375,0.46875 0.0527,0.0302 0.10365,0.0635 0.15625,0.0937 13.42116,7.72444 24.80924,18.58793 33.15625,31.59375 0.006,0.0125 0.025,0.0188 0.0312,0.0312 0.0988,0.1957 0.17107,0.40291 0.28125,0.59375 0.27053,0.46858 0.6082,0.88841 0.9375,1.3125 0.012,0.0197 0.0193,0.0428 0.0312,0.0625 8.85179,14.56693 13.9375,31.6803 13.9375,49.96875 0,16.23338 -4.03025,31.52614 -11.125,44.9375 -0.0437,0.0827 -0.081,0.16744 -0.125,0.25 -0.0798,0.12676 -0.17483,0.2448 -0.25,0.375 -0.23168,0.40129 -0.4432,0.79634 -0.625,1.21875 -8.01971,14.38744 -19.61634,26.50814 -33.59375,35.15625 -0.44623,0.18876 -0.88968,0.41214 -1.3125,0.65625 -0.52626,0.30384 -0.9986,0.65349 -1.46875,1.03125 -13.41699,7.68432 -28.87255,12.23914 -45.34375,12.65625 -0.0534,-7.3e-4 -0.10273,0 -0.15625,0 -0.0209,0 -0.0417,-1.1e-4 -0.0625,0 -0.75438,0.0174 -1.52268,0.0312 -2.28125,0.0312 -16.88986,0 -32.75875,-4.36652 -46.5625,-12 -0.0825,-0.0504 -0.16602,-0.10776 -0.25,-0.15625 -0.14208,-0.082 -0.29272,-0.14301 -0.4375,-0.21875 -14.22997,-8.02113 -26.21988,-19.53849 -34.78125,-33.40625 -9.06821,-14.68874 -14.28125,-31.9966 -14.28125,-50.53125 0,-40.79302 25.35077,-75.66748 61.15625,-89.71875 l -13.6875,-31.09375 0.0312,0 c -1.74399,-4.6484 -3.98561,-9.42231 -6.71875,-14.15625 C 230.32124,119.66148 210.30289,106.09929 199,112.625 c -11.30291,6.52574 -9.55374,30.66147 3.8125,53.8125 2.96985,5.14393 6.26573,9.80198 9.71875,13.875 -5.7271,5.05099 -11.00947,10.5921 -15.78125,16.5625 -3.80487,-3.11792 -8.09643,-6.10772 -12.78125,-8.8125 -23.15103,-13.36624 -47.25552,-15.08413 -53.78125,-3.78125 -6.52574,11.30291 7.03648,31.32124 30.1875,44.6875 4.97896,2.87461 9.99963,5.18897 14.875,6.96875 -2.46083,7.14089 -4.32856,14.55225 -5.53125,22.1875 -4.77107,-0.76765 -9.88541,-1.1875 -15.1875,-1.1875 -26.7325,10e-6 -48.46874,10.54231 -48.46875,23.59375 0,13.05148 21.73625,23.62499 48.46875,23.625 5.54669,0 10.88471,-0.47556 15.84375,-1.3125 1.4732,7.8816 3.68449,15.49524 6.5,22.8125 -4.39666,1.69843 -8.87892,3.79723 -13.34375,6.375 -23.15102,13.36626 -36.71321,33.38461 -30.1875,44.6875 6.52574,11.30291 30.63022,9.58499 53.78125,-3.78125 4.6885,-2.70691 8.97415,-5.69191 12.78125,-8.8125 4.92466,5.71451 10.32771,10.98838 16.15625,15.78125 -2.92511,3.64024 -5.73007,7.70622 -8.28125,12.125 C 194.415,415.18228 192.69712,439.28677 204,445.8125 c 11.30291,6.52574 31.32124,-7.03648 44.6875,-30.1875 2.6101,-4.52082 4.7603,-9.08201 6.46875,-13.53125 7.64197,2.7267 15.61897,4.76217 23.84375,6.03125 -0.68023,4.51736 -1.0625,9.30261 -1.0625,14.28125 0,26.73249 10.57354,48.5 23.625,48.5 13.05146,0 23.59375,-21.76751 23.59375,-48.5 0,-5.27951 -0.4261,-10.3402 -1.1875,-15.09375 7.59536,-1.45624 14.96297,-3.57456 22.03125,-6.28125 1.67702,4.28859 3.76972,8.68115 6.28125,13.03125 13.36625,23.15101 33.38461,36.71323 44.6875,30.1875 11.3029,-6.52573 9.55374,-30.66149 -3.8125,-53.8125 -2.63566,-4.5651 -5.53148,-8.73713 -8.5625,-12.46875 6.38689,-5.49887 12.24239,-11.59794 17.46875,-18.21875 3.62245,2.90481 7.67182,5.65254 12.0625,8.1875 23.15102,13.36624 47.25552,15.11539 53.78125,3.8125 6.52573,-11.3029 -7.03649,-31.32125 -30.1875,-44.6875 -4.79097,-2.76607 -9.61108,-5.02845 -14.3125,-6.78125 2.54896,-7.60458 4.40648,-15.53327 5.53125,-23.6875 4.72575,0.75153 9.78748,1.15625 15.03125,1.15625 26.7325,-10e-6 48.46875,-10.57355 48.46875,-23.625 0,-13.05147 -21.73626,-23.59374 -48.46875,-23.59375 -5.78931,0 -11.3579,0.46667 -16.5,1.375 -1.62014,-7.81984 -3.95992,-15.38314 -6.90625,-22.625 4.53124,-1.72354 9.17289,-3.93311 13.78125,-6.59375 23.15102,-13.36626 36.71322,-33.38461 30.1875,-44.6875 -6.52574,-11.30291 -30.63023,-9.55374 -53.78125,3.8125 -5.09304,2.94047 -9.73695,6.20926 -13.78125,9.625 -4.72585,-5.29721 -9.88609,-10.18464 -15.40625,-14.65625 3.24435,-3.9087 6.3512,-8.32902 9.15625,-13.1875 13.36624,-23.15103 15.11538,-47.28677 3.8125,-53.8125 -1.76608,-1.01965 -3.74185,-1.54629 -5.875,-1.625 -0.35997,-0.0133 -0.72528,-0.0122 -1.09375,0 z m -87.47365,189.99841 c 0.30109,-1.88489 0.54333,-6.03691 0.5383,-9.22672 -0.005,-3.1898 0.44007,-19.32337 0.98909,-35.85237 0.54902,-16.529 1.15916,-41.44112 1.35586,-55.36028 l 0.35763,-25.30756 -4.74777,0 -4.74777,0 0.0779,18.98067 c 0.11188,27.28815 2.45319,106.57962 3.20486,108.53741 1.03686,2.70052 2.38612,1.89645 2.97198,-1.77115 z m -13.96069,71.21674 c -1.35791,-0.25946 -3.34342,-1.52283 -3.4293,-3.08943 l -2.09096,-38.14417 -3.14188,-72.95327 -1.51946,-23.19859 c -2.98444,-45.56544 -3.06631,-61.84255 -7.34844,-67.81643 -0.90937,-1.26862 -2.42675,-3.37426 -3.37195,-4.67918 l -1.71856,-2.37258 34.15437,0.0161 32.54211,0.56366 c -0.93077,1.0216 -0.92366,1.01491 -1.47326,2.00983 -1.32293,2.26548 -1.50614,2.91036 -2.71788,5.25361 -2.14172,4.14161 -2.4558,5.25569 -3.33603,31.10721 l -1.90147,55.84438 -1.09228,45.01686 -1.05506,16.77883 -1.05506,25.69549 -1.34708,26.88501 c -0.0628,1.25319 -3.23346,2.27833 -5.53907,2.81259 -4.19345,0.9717 -19.97794,1.14527 -24.55873,0.27005 z m -190.734475,196.13818 -2.584958,-3.90229 2.852518,-3.6433 2.944074,-3.48644 c 0.897104,-1.06236 3.583641,0.91094 4.698211,2.02489 0.91283,0.91235 2.01891,2.27655 1.84926,3.45567 -0.16965,1.17911 -1.61504,2.17313 -2.95707,4.24383 -1.10929,1.71159 -2.70623,4.3283 -3.888665,3.45625 z m 13.512245,-1.94896 c -2.96317,-2.0744 -2.9367,-2.7358 0.31565,-7.8851 l 2.66052,-4.2122 3.19659,1.6521 c 4.46555,2.308 4.81086,4.1585 1.56875,8.4068 -3.13408,4.1067 -4.33517,4.423 -7.74151,2.0384 z M 33.49815,545.68895 c -1.59578,-0.9041 -2.575623,-2.18399 -2.90141,-2.58931 -0.755217,-0.93958 -1.044935,-1.57253 -1.3897,-2.33891 -1.633613,-3.63137 -3.61531,-9.42976 -2.07309,-17.05634 1.94326,-9.60987 5.26526,-18.26411 7.31217,-19.04915 1.2655,-0.48535 1.47594,-0.19485 0.88404,1.22032 -3.53971,8.46316 -4.70307,14.39837 -3.61433,18.43944 4.10575,15.23924 26.61392,12.92503 37.46477,-3.85199 1.56164,-2.41453 2.13078,-5.86044 2.61245,-15.81722 0.61462,-12.70515 2.22247,-18.79036 4.39193,-16.62208 1.89779,1.89675 0.41755,22.05984 -2.16253,29.45686 -3.86443,11.07923 -10.91342,20.72232 -19.16367,26.21612 -4.924,3.27884 -17.0874,4.41333 -21.36063,1.99226 z m 44.06223,-1.55468 c -1.00075,-1.61836 2.598411,-4.52601 4.38884,-6.3887 1.103305,-1.14784 2.454815,-2.05039 3.82683,-2.85809 0.924283,-0.54412 1.981415,-0.82792 2.93452,-1.31982 0.926417,-0.47812 1.834934,-0.9971 2.69811,-1.58172 0.711633,-0.48198 1.463807,-0.94068 2.03634,-1.58172 1.091772,-1.22241 1.72641,-2.78677 2.56004,-4.1979 2.260741,-3.82689 5.4289,-10.99536 6.62048,-11.57469 -0.20358,-0.0666 2.42359,-2.1229 5.07724,-2.02398 3.37322,0.12576 3.96202,-0.62764 4.67545,-1.98454 0.65051,-1.28142 0.73118,-1.28221 1.12313,-2.84303 0.45157,-1.79818 1.08092,-2.46975 1.71792,-1.83311 0.63699,0.63665 0.16349,2.96043 -1.29248,6.34307 -1.73375,4.02799 -2.98449,5.49619 -5.09552,5.98142 -4.62793,1.06376 -7.45893,5.19532 -11.72524,12.83279 -4.839403,8.66342 -7.623167,9.67543 -11.83181,12.4624 -1.390494,0.92079 -2.142971,1.31563 -3.467268,1.45301 -1.43477,0.14884 -3.521432,0.28728 -4.246582,-0.88539 z m 55.9047,-2.66826 c -0.58028,-0.22185 -3.01656,-0.90659 -5.41395,-1.52163 -5.50145,-1.41137 -7.30531,-5.06374 -6.28767,-12.73093 1.21039,-9.11936 2.49678,-10.60432 4.52774,-5.22664 0.80533,2.13237 2.53462,3.75431 5.24285,4.91735 8.92995,3.83495 45.0642,0.99909 57.04215,-4.47673 3.1334,-1.2529 6.24146,-1.97458 8.72001,-4.14975 1.93954,-2.33573 3.16518,-1.92741 3.16518,1.05448 0,2.17648 0.50884,2.63621 2.91787,2.63621 3.67259,0 10.16592,-3.41008 10.59302,-5.56309 0.17745,-0.89456 -0.666,-2.54704 -1.87435,-3.67217 -2.93457,-2.73247 -1.93638,-4.74873 3.13393,-6.33029 5.57235,-1.73817 6.74243,-1.65549 8.80485,0.62221 2.07378,2.29025 2.25926,5.54035 0.42729,7.48721 -2.90326,3.08531 4.66806,-0.0461 8.17495,-3.38099 1.95584,-1.85995 4.18069,-3.43183 4.9441,-3.49307 0.76342,-0.0613 2.10299,-0.1836 2.97683,-0.27195 0.87384,-0.0884 2.18509,-1.50698 2.91388,-3.15254 0.7288,-1.64556 2.5018,-3.62134 3.94001,-4.39063 2.25118,-1.20412 2.88567,-1.15381 4.56117,0.36167 1.84811,1.67158 2.3826,1.33465 10.59945,-6.68143 7.4657,-7.2833 9.15777,-8.44179 12.32994,-8.44179 6.80104,0 7.23309,6.27737 1.05218,15.2876 -2.4065,3.50806 -6.99878,7.90772 -8.25602,7.90971 -0.44674,7.1e-4 -2.6925,1.18758 -4.99057,2.63749 -2.29807,1.44991 -5.58973,2.6362 -7.31481,2.6362 -3.49193,0 -8.51109,-1.96536 -8.51109,-3.33271 0,-1.73458 -2.90196,-0.84361 -5.70312,1.75099 -1.56534,1.44991 -3.90274,2.6362 -5.19423,2.6362 -1.29149,0 -3.997,1.53084 -6.01224,3.40185 -3.17176,2.94475 -4.47065,3.42198 -9.66699,3.55171 -4.18519,0.1045 -6.56861,0.71528 -7.8711,2.01706 -1.02751,1.02693 -3.44843,2.52706 -5.37983,3.33361 -3.0545,1.27556 -3.81155,1.25648 -5.81566,-0.14649 -3.19169,-2.23432 -5.05109,0.0437 -7.30707,1.02328 -2.31648,1.96254 -4.70907,3.56961 -7.28907,4.81697 -1.0056,0.48596 -2.06858,0.8453 -3.08044,1.3181 -0.2824,0.13195 -0.54205,0.31357 -0.83376,0.42342 -7.20015,2.71154 -8.43685,3.15995 -22.3614,5.7201 -6.06177,1.11451 -25.07749,2.11774 -26.90403,1.41941 z m 135.32906,-41.08446 c 8.17221,-3.80257 8.80185,-7.95652 1.23861,-8.17144 -2.90619,-0.0826 -4.21326,0.70716 -7.52713,4.54796 -2.20562,2.55635 -4.01152,5.00379 -4.01309,5.43877 -0.005,1.57344 4.86233,0.71563 10.30161,-1.81529 z m 136.85276,38.04321 c -1.6086,-2.45371 -2.55774,-4.67671 -1.0477,-19.10181 l 1.71,-16.33525 c 1.82463,-5.56242 1.39516,-21.95957 5.0194,-24.0291 1.0672,-0.35553 1.2192,1.40645 0.7111,8.24181 l -1.7154,10.69054 -0.7513,7.22393 0.3178,5.22743 10.5506,-11.71953 c 23.3281,-25.91272 22.8407,-25.33975 27.0105,-31.75108 3.2978,-5.07072 5.1688,-6.31123 5.1688,-3.42706 -0.3077,1.37038 -1.23651,4.40053 -4.4528,9.09961 l -4.7941,6.12693 c -4.29706,5.4917 -9.9802,12.3891 -19.4376,22.30659 -3.8808,4.06946 -6.492,7.57606 -5.8029,7.79245 0.6892,0.21638 7.6375,1.16902 15.4407,2.11698 7.8033,0.94795 14.5333,1.93699 14.9557,2.19787 0.9506,0.58721 19.4372,-1.33596 27.3023,-2.84027 15.9162,-3.04421 35.5505,-10.77251 44.8401,-17.64961 2.9014,-2.14791 6.5196,-4.69249 8.0405,-5.65461 11.51504,-8.58173 17.3414,-18.60734 22.0653,-30.08645 1.0154,-2.49335 3.1286,-3.2558 3.1286,-1.12882 -2.14674,14.56079 -15.0506,30.26973 -24.8875,38.83693 -5.8537,5.04375 -15.8674,12.64338 -16.6597,12.64338 -0.4378,0 -2.3074,1.13413 -4.1546,2.52029 -4.3479,3.2627 -11.6267,6.50822 -18.1891,8.11021 -2.8686,0.70026 -5.7584,1.69533 -6.4219,2.21129 -2.6152,2.0337 -23.4082,5.25239 -34.6657,5.36615 -9.7845,0.0989 -12.5007,-0.25275 -17.3096,-2.24078 -3.1372,-1.29692 -6.3226,-2.12078 -7.0788,-1.83079 -0.7561,0.29 -1.6779,2.80352 -2.0484,5.58561 -1.3925,10.45522 -12.5394,18.06361 -16.8443,11.49716 z m 12.8732,-12.4503 c 2.994,-1.08204 3.5039,-1.76717 3.5039,-4.70806 0,-4.26767 -2.5804,-5.86702 -8.7446,-5.41996 -4.4415,0.32212 -4.4438,0.32453 -4.7759,4.96293 -0.4612,6.44294 2.3994,7.91801 10.0166,5.16509 z M 296.84578,539.1648 c -3.25421,-0.63619 -6.01358,-4.10722 -6.37353,-8.01729 -0.17111,-1.85872 -0.62589,-14.11603 -1.01063,-27.23845 l -0.69952,-23.85895 2.77617,-1.81802 c 3.6602,-2.39693 21.26829,-2.01142 22.95247,0.50253 0.66102,0.98669 0.93496,11.30064 0.72819,27.41652 -0.36336,28.31929 -0.55193,29.216 -6.76357,32.162 -3.2105,1.52265 -6.82217,1.78758 -11.60958,0.85166 z m 10.27063,-19.97071 c 2.85525,-5.14295 3.69566,-14.56959 1.58583,-17.78783 -4.0628,-6.19722 -11.53928,-0.42976 -10.93521,8.43557 0.26695,3.91779 0.53139,4.24144 3.71634,4.54836 1.88592,0.18174 3.42895,0.71772 3.42895,1.19108 0,0.68838 -3.65061,3.90757 -10.52005,9.27678 -0.27333,0.21363 0.19069,0.81319 1.03116,1.33234 2.21245,1.36663 9.45637,-2.96766 11.69298,-6.9963 z m 65.29403,15.38004 c -1.59139,-2.97191 0.17478,-11.63186 3.91502,-19.19627 2.08225,-4.21123 2.95174,-5.00879 5.46049,-5.00879 4.16376,0 6.4761,2.96827 6.4761,8.31311 0,4.30499 -2.60698,11.28562 -5.67551,15.19719 -0.81696,1.04138 -3.15165,2.16368 -5.18822,2.49399 -3.10754,0.504 -3.90944,0.21475 -4.98788,-1.79923 z m 10.57631,-9.52538 c 0,-2.09047 -4.24234,-3.8429 -6.27039,-2.59019 -1.18338,0.73097 -1.53683,5.06362 -0.4978,6.10209 1.29659,1.29588 6.76819,-1.54324 6.76819,-3.5119 z m 145.12795,-1.25076 c -0.3997,-4.26308 -0.4423,-9.14721 -0.095,-10.85361 1.2638,-6.2027 5.3335,-18.38607 6.1427,-18.38927 0.4566,-0.002 0.4997,6.25166 0.096,13.89656 -1.1259,21.31634 -4.7383,30.33917 -6.144,15.34632 z m 18.4399,-1.566 c 0.058,-1.36791 2.4612,-3.93241 6.6302,-7.07527 3.3721,-2.5421 3.9196,-3.47725 3.3707,-5.75674 -0.3605,-1.49688 -1.8162,-3.59158 -3.2348,-4.65489 -1.6103,-1.20691 -2.5779,-2.98979 -2.5755,-4.74517 0,-3.05777 3.5609,-9.666 5.2024,-9.666 0.5594,0 2.5016,1.54218 4.316,3.42706 3.1924,3.31651 3.2809,3.66072 2.7421,10.66913 -0.336,4.36951 -1.2048,7.95765 -2.1904,9.04613 -0.60172,1.46691 -1.21815,2.18556 -1.6335,2.65183 -0.8282,0.92974 -4.3712,4.86335 -7.1904,5.95175 -2.978,1.14978 -5.4821,1.21986 -5.4368,0.15217 z M 50.9874,516.11261 c -1.84149,-0.80618 -3.65566,-1.96305 -4.03148,-2.5708 -0.9005,-1.45622 1.27442,-7.93607 3.19969,-9.53304 2.12327,-1.76118 6.4708,-0.42142 8.45529,2.60563 1.56637,2.38927 1.49678,2.79181 -1.18192,6.83739 -1.56545,2.36426 -2.90187,4.25994 -2.96983,4.21264 -0.068,-0.0474 -1.63025,-0.74563 -3.47175,-1.55182 z m 37.63781,-13.91577 c 1e-4,-3.91477 0.68407,-10.67663 1.51993,-15.02637 1.49432,-7.77635 4.49962,-16.47917 5.38507,-15.59422 0.24815,0.24803 -0.0792,7.06118 -0.7275,15.14034 -1.08981,13.5816 -3.2147,22.598 -5.32566,22.598 -0.46861,0 -0.85193,-3.20299 -0.85184,-7.11775 z m 36.26431,1.93771 c -1.73626,-1.7353 3.69701,-35.14987 6.09331,-37.4739 1.46839,-1.42412 1.56462,-0.79369 0.96578,6.32688 -1.50136,17.85175 -4.98449,33.22049 -7.05909,31.14702 z m 33.52891,-2.48037 c -2.05342,-0.98667 -2.38365,-1.77321 -1.92652,-4.58862 0.67216,-4.13979 3.61091,-8.8406 5.52677,-8.8406 0.7738,0 2.69947,1.19725 4.27929,2.66058 l 2.87238,2.66058 -2.09798,2.87545 c -1.1539,1.58149 -2.40711,3.70585 -2.78493,4.72079 -0.77999,2.09533 -2.29796,2.22771 -5.86901,0.51182 z m 14.89538,-3.25523 c -1.29452,-0.64149 -2.6025,-1.81443 -2.90662,-2.60653 -0.71314,-1.85739 3.1947,-10.73091 4.72583,-10.73091 2.22578,0 7.39235,3.22477 7.39235,4.61403 0,1.25672 -5.97904,10.33227 -6.60074,10.01924 -0.14143,-0.0712 -1.31631,-0.65433 -2.61082,-1.29583 z M 431.5195,479.92318 c 0,-1.60864 11.4489,-14.94905 12.027,-14.01408 0.5908,0.95542 -1.3552,3.83682 -5.7975,8.58415 -1.5063,1.60964 -3.0344,3.69694 -3.3959,4.63847 -0.6866,1.7883 -2.8336,2.38799 -2.8336,0.79146 z m 35.9228,-0.0805 c -1.3029,-0.82377 -1.1577,-1.7671 0.9716,-6.31074 2.6531,-5.66131 5.7525,-7.03687 8.4732,-3.76047 2.0054,2.41501 3.5361,1.87293 5.2753,-1.86816 1.9576,-4.21093 5.1656,-4.80763 7.6045,-1.41451 2.2088,3.07285 0.9163,7.51128 -3.0602,10.50911 -2.361,1.77992 -2.7245,1.80092 -4.4325,0.25607 -2.5766,-2.33056 -4.4449,-2.08341 -7.3442,0.97156 -2.6032,2.74294 -4.9168,3.24262 -7.4877,1.61714 z m -236.12041,-3.24992 c -2.80594,-1.12723 -2.98006,-3.11687 -0.69411,-7.9315 2.61553,-5.50881 4.01916,-6.23592 7.76682,-4.02334 3.93436,2.32281 4.07388,4.8624 0.52278,9.51558 -2.82597,3.703 -3.72836,3.99281 -7.59549,2.43926 z M 476.2537,465.2738 c -3.1021,-2.07025 -3.3624,-4.95089 -0.8083,-8.94695 2.7397,-4.28638 4.5868,-4.87824 7.1692,-2.29726 2.0908,2.08966 2.0937,2.04985 -0.5463,7.50037 -2.1573,4.45384 -3.4772,5.30369 -5.8146,3.74384 z m 42.4718,-2.17585 c -2.1778,-2.40509 -2.1964,-4.22694 -0.086,-8.45443 1.8638,-3.73409 3.146,-4.06394 6.5458,-1.68395 3.0806,2.15656 2.9629,4.84406 -0.3865,8.8224 -3.1838,3.78163 -3.7328,3.90059 -6.0731,1.31598 z M 318.6281,580.89102 c 0,-19.9366 0.87592,-29.4277 4.70102,-43.50241 0.46742,-1.7199 1.40895,-3.27597 2.19526,-4.87543 0.93964,-1.91135 1.72736,-3.93607 3.01127,-5.6354 3.56667,-4.72068 11.49983,-12.28399 12.77397,-12.32392 1.5674,-0.0491 4.49753,-4.47018 4.914,-7.41436 0.19997,-1.41355 0.71714,-2.8338 1.14928,-3.15611 0.43214,-0.32231 1.26484,-6.01651 1.85044,-12.65378 0.5856,-6.63726 1.53713,-14.20307 2.11452,-16.81291 0.57738,-2.60985 1.41861,-6.37051 1.86938,-8.35701 1.19974,-5.28707 4.54478,-5.32494 3.40302,-0.2546 l -0.78593,17.46709 c 0.0242,1.28482 0.58345,1.96829 0.81513,2.66295 0.56221,1.68571 5.2461,0.56487 5.2461,-1.34612 0,-2.54843 6.70362,-12.02887 9.80824,-13.87108 2.48643,-1.47539 3.23301,-1.52948 4.74777,-0.34405 4.71613,3.69075 4.38383,5.0973 -1.20424,5.0973 -5.62343,0 -8.68109,2.72119 -7.65389,6.81164 0.99123,3.94721 6.03903,3.69667 9.76674,-0.48475 4.19482,-4.70538 6.43011,-4.18645 3.4066,0.79086 -0.97921,2.71384 -2.99741,5.59654 -4.79944,7.64455 -1.8394,3.0611 -7.12751,7.20072 -10.23876,8.38298 -1.60344,0.60929 -5.49569,1.10779 -8.64948,1.10779 -5.62078,0 -5.73414,0.0603 -5.73414,3.05063 0,3.05743 1.52399,4.33074 5.18331,4.33074 1.01505,0 2.48428,1.19285 3.26497,2.65078 1.26111,2.35511 1.14124,3.14901 -1.07471,7.11775 -3.24706,5.81544 -4.54525,6.68996 -12.12073,8.16501 -8.16169,1.5892 -15.23917,6.32752 -17.02141,9.13718 l -1.55713,2.45477 -0.94068,2.57397 -0.89164,3.12473 c -0.27612,0.96767 -1.38073,6.77191 -3.28692,39.11681 -0.47851,8.1195 -1.20921,15.5931 -1.62379,16.608 -1.95742,4.7921 -2.63813,0.3376 -2.63813,-17.2636 z M 241.60337,102.27721 c -3.4415,-4.8305 -3.48849,-16.66739 -0.0942,-23.71833 2.28669,-4.75008 10.0163,-14.45843 18.56305,-23.31511 7.23129,-7.4935 10.07595,-11.830562 9.81457,-19.413732 -0.23462,-6.8069 -2.5884,-9.993808 -6.54883,-13.415328 -2.46211,-2.12708 -3.61676,-4.48852 -2.19469,-4.48852 0.29893,0 3.26628,1.51188 6.59412,3.35974 17.38131,9.65138 23.82935,18.70378 25.23391,35.42585 0.35471,4.22311 1.0822,7.94848 1.61664,8.2786 0.53444,0.33012 3.02118,-2.46013 4.58573,-3.61965 4.74662,-3.517811 9.58201,-6.924475 14.55412,-10.11563 4.34723,-2.790099 9.31239,-4.65145 13.34074,-7.88494 4.18825,-3.361835 7.56772,-5.2345 11.00426,-11.76845 4.66986,-8.87888 3.61865,-18.272559 -0.49459,-24.264 -1.8292,-2.6644575 -4.49417,-6.28323 -3.25714,-6.28323 1.6537,0 13.17604,12.52187 15.34944,16.68096 6.22823,11.91855 5.05654,26.74385 -3.10069,39.23309 -2.60174,3.98344 -4.73044,7.50512 -4.73044,7.82597 0,3.21935 12.66337,-7.86624 18.05421,-15.80476 3.85832,-5.68173 4.23362,-6.81328 3.92064,-11.82068 -0.35644,-5.70257 -0.19668,-6.0774 1.9967,-4.68456 1.48858,0.94529 4.48026,6.054505 4.51506,12.00444 0.0352,6.018628 -2.17774,8.465013 -5.71811,14.03479 -3.12462,4.91571 -14.16179,17.18569 -17.22495,23.23094 -3.70783,7.31752 -3.91602,10.5343 -1.04097,16.08449 1.41678,2.73504 2.36805,5.56594 2.11394,6.29089 -0.36118,1.03044 -11.82492,1.3181 -52.52771,1.3181 l -52.0657,0 -2.25916,-3.17094 z" style="color:#000000;fill:#000000;fill-opacity:1;fill-rule:nonzero;stroke:none;stroke-width:10;marker:none;visibility:visible;display:inline;overflow:visible;enable-background:accumulate" transform="translate(0,452.36218)" id="rect3907"/>
    </g>
  </g>
</svg>